<?xml version="1.0" ?><svg height="21px" version="1.1" viewBox="0 0 20 21" width="20px" xmlns="http://www.w3.org/2000/svg" xmlns:sketch="http://www.bohemiancoding.com/sketch/ns" xmlns:xlink="http://www.w3.org/1999/xlink"><title/><desc/><defs/><g fill="none" fill-rule="evenodd" id="Page-1" stroke="none" stroke-width="1"><g fill="#000000" id="Icons-Device" transform="translate(-170.000000, -210.000000)"><g id="wifi-tethering-2" transform="translate(170.000000, 210.500000)"><path d="M10,8 C8.9,8 8,8.9 8,10 C8,11.1 8.9,12 10,12 C11.1,12 12,11.1 12,10 C12,8.9 11.1,8 10,8 L10,8 Z M16,10 C16,6.7 13.3,4 10,4 C6.7,4 4,6.7 4,10 C4,12.2 5.2,14.1 7,15.2 L8,13.5 C6.8,12.8 6,11.5 6,10.1 C6,7.9 7.8,6.1 10,6.1 C12.2,6.1 14,7.9 14,10.1 C14,11.6 13.2,12.9 12,13.5 L13,15.2 C14.8,14.1 16,12.2 16,10 L16,10 Z M10,0 C4.5,0 0,4.5 0,10 C0,13.7 2,16.9 5,18.6 L6,16.9 C3.6,15.5 2,12.9 2,10 C2,5.6 5.6,2 10,2 C14.4,2 18,5.6 18,10 C18,13 16.4,15.5 14,16.9 L15,18.6 C18,16.9 20,13.6 20,10 C20,4.5 15.5,0 10,0 L10,0 Z" id="Shape"/></g></g></g></svg>